<svg width="515" height="67" viewBox="0 0 515 67" fill="none" xmlns="http://www.w3.org/2000/svg">
<path d="M126.676 57.96C111.263 57.96 103.556 50.76 103.556 36.36C103.556 30.7066 104.489 25.4533 106.356 20.6C108.223 15.6933 110.969 11.6666 114.596 8.51997C117.316 6.11997 120.489 4.30664 124.116 3.07997C127.796 1.79997 131.849 1.15997 136.276 1.15997C143.209 1.15997 148.916 2.54664 153.396 5.31997C157.929 8.0933 160.196 12.12 160.196 17.4C160.196 18.6266 160.089 19.7733 159.876 20.84H147.876C147.929 20.52 147.956 20.04 147.956 19.4C147.956 16.84 146.836 14.8133 144.596 13.32C142.409 11.7733 139.716 11 136.516 11C130.809 11 126.249 12.4933 122.836 15.48C119.476 18.4666 117.343 22.76 116.436 28.36C115.796 32.2533 115.476 34.8666 115.476 36.2C115.476 44.1466 119.529 48.12 127.636 48.12C132.116 48.12 136.036 47.08 139.396 45C142.756 42.92 144.756 40.1466 145.396 36.68H128.836L130.516 27.16H158.756L153.476 57H145.476V50.92C142.596 53.2666 139.689 55.0266 136.756 56.2C133.876 57.3733 130.516 57.96 126.676 57.96Z" fill="white"/>
<path d="M184.142 57.96C180.515 57.96 177.262 57.2133 174.382 55.72C171.555 54.2266 169.288 52.1466 167.582 49.48C165.928 46.8133 165.075 43.8 165.022 40.44C165.022 37.8266 165.208 35.5066 165.582 33.48C166.648 27.1866 169.102 22.36 172.942 19C176.782 15.64 182.088 13.96 188.862 13.96C192.542 13.96 195.822 14.7066 198.702 16.2C201.582 17.6933 203.848 19.7733 205.502 22.44C207.208 25.1066 208.088 28.12 208.142 31.48C208.142 34.0933 207.955 36.4133 207.582 38.44C206.515 44.7333 204.035 49.56 200.142 52.92C196.302 56.28 190.968 57.96 184.142 57.96ZM184.942 49C188.568 49 191.368 47.96 193.342 45.88C195.368 43.8 196.648 40.6 197.182 36.28C197.395 34.84 197.502 33.2933 197.502 31.64C197.448 28.92 196.595 26.7866 194.942 25.24C193.342 23.6933 191.102 22.92 188.222 22.92C184.595 22.92 181.768 23.96 179.742 26.04C177.768 28.12 176.515 31.32 175.982 35.64C175.768 37.08 175.662 38.6266 175.662 40.28C175.715 43 176.542 45.1333 178.142 46.68C179.795 48.2266 182.062 49 184.942 49Z" fill="white"/>
<path d="M222.408 2.11997H262.168L260.408 11.96H232.248L229.848 25.48H255.048L253.368 35.32H228.168L224.328 57H212.728L222.408 2.11997Z" fill="white"/>
<path d="M269.394 14.92H280.354L272.914 57H261.954L269.394 14.92Z" fill="white"/>
<path d="M291.98 14.92H301.18V20.6H301.74C303.286 18.68 305.286 17.1066 307.74 15.88C310.246 14.6 312.86 13.96 315.58 13.96C319.1 13.96 321.98 14.8666 324.22 16.68C326.46 18.4933 327.58 21.32 327.58 25.16C327.58 26.8666 327.313 29.1333 326.78 31.96L322.3 57H311.34L315.66 32.68C315.98 30.76 316.14 29.48 316.14 28.84C316.14 25.3733 314.353 23.64 310.78 23.64C307.953 23.64 305.5 24.6266 303.42 26.6C301.393 28.5733 300.06 31.4 299.42 35.08L295.5 57H284.54L291.98 14.92Z" fill="white"/>
<path d="M347.206 57.96C342.993 57.96 339.633 56.5466 337.126 53.72C334.673 50.84 333.446 46.7066 333.446 41.32C333.446 37.2133 334.113 33.0533 335.446 28.84C336.779 24.6266 338.859 21.1066 341.686 18.28C344.513 15.4 348.033 13.96 352.246 13.96C355.073 13.96 357.446 14.4666 359.366 15.48C361.286 16.44 362.886 17.88 364.166 19.8H364.646L367.126 14.92H376.406L374.566 25.16L373.286 32.12C371.633 41.2933 370.806 46.2 370.806 46.84C370.806 47.5333 371.019 48.0666 371.446 48.44C371.926 48.8133 372.486 49 373.126 49H375.446L374.086 56.68C372.273 57.5333 370.086 57.96 367.526 57.96C365.179 57.96 363.339 57.4266 362.006 56.36C360.726 55.24 360.113 53.6133 360.166 51.48H359.686C358.193 53.56 356.353 55.16 354.166 56.28C351.979 57.4 349.659 57.96 347.206 57.96ZM351.446 48.44C353.953 48.44 356.006 47.48 357.606 45.56C359.259 43.64 360.433 41.3466 361.126 38.68C361.873 36.0133 362.246 33.5333 362.246 31.24C362.246 25.8533 360.006 23.16 355.526 23.16C352.859 23.16 350.726 24.1466 349.126 26.12C347.526 28.04 346.406 30.3333 345.766 33C345.126 35.6666 344.806 38.2266 344.806 40.68C344.806 45.8533 347.019 48.44 351.446 48.44Z" fill="white"/>
<path d="M388.152 14.92H397.352V20.6H397.912C399.458 18.68 401.458 17.1066 403.912 15.88C406.418 14.6 409.032 13.96 411.752 13.96C415.272 13.96 418.152 14.8666 420.392 16.68C422.632 18.4933 423.752 21.32 423.752 25.16C423.752 26.8666 423.485 29.1333 422.952 31.96L418.472 57H407.512L411.832 32.68C412.152 30.76 412.312 29.48 412.312 28.84C412.312 25.3733 410.525 23.64 406.952 23.64C404.125 23.64 401.672 24.6266 399.592 26.6C397.565 28.5733 396.232 31.4 395.592 35.08L391.672 57H380.712L388.152 14.92Z" fill="white"/>
<path d="M493.031 57.96C486.684 57.96 481.938 56.6533 478.791 54.04C475.644 51.4266 474.071 47.4266 474.071 42.04C474.071 37.08 474.844 32.4933 476.391 28.28C477.938 24.0133 480.391 20.5733 483.751 17.96C487.164 15.2933 491.511 13.96 496.791 13.96C502.658 13.96 507.031 15.24 509.911 17.8C512.791 20.36 514.231 24.3333 514.231 29.72C514.231 31.9066 514.018 33.9866 513.591 35.96L513.111 38.52H485.431C485.218 39.7466 485.111 40.9733 485.111 42.2C485.111 44.6533 485.698 46.4933 486.871 47.72C488.098 48.8933 490.044 49.48 492.711 49.48C497.778 49.48 500.764 47.0266 501.671 42.12H512.471C511.671 47.4 509.538 51.3733 506.071 54.04C502.658 56.6533 498.311 57.96 493.031 57.96ZM503.031 31.24C503.191 30.28 503.271 29.3733 503.271 28.52C503.271 24.52 501.271 22.52 497.271 22.52C494.498 22.52 492.284 23.24 490.631 24.68C488.978 26.12 487.724 28.3066 486.871 31.24H503.031Z" fill="white"/>
<path fill-rule="evenodd" clip-rule="evenodd" d="M16.7076 36.2649C17.5103 38.121 17.6366 40.2 17.0644 42.1397C16.4921 44.0794 15.2577 45.7569 13.5759 46.8802C11.8942 48.0034 9.87179 48.5012 7.86083 48.2869C5.84988 48.0725 3.97782 47.1596 2.57065 45.7071C1.16348 44.2546 0.310354 42.3546 0.159843 40.3378C0.0093314 38.3211 0.570967 36.3155 1.74695 34.6702C2.92293 33.0249 4.63874 31.8442 6.5956 31.3337C8.55246 30.8233 10.6264 31.0153 12.4562 31.8765L22.7863 21.8688C22.2134 20.5435 21.9817 19.0958 22.1124 17.6579C22.2431 16.2201 22.732 14.8379 23.5344 13.6376C24.3369 12.4374 25.4273 11.4573 26.706 10.787C27.9848 10.1167 29.4111 9.77746 30.8547 9.80034C32.2983 9.82322 33.7132 10.2075 34.97 10.918C36.2269 11.6285 37.2857 12.6426 38.0497 13.8677C38.8137 15.0928 39.2585 16.4898 39.3436 17.9311C39.4286 19.3723 39.1511 20.812 38.5365 22.1184L48.5443 32.4485C49.6692 31.9598 50.8854 31.7171 52.1117 31.7365C53.338 31.756 54.546 32.0371 55.6548 32.5612L70.3732 18.3021C69.5705 16.4459 69.4442 14.3669 70.0165 12.4272C70.5887 10.4875 71.8232 8.80998 73.5049 7.68673C75.1866 6.56348 77.209 6.06569 79.22 6.28004C81.231 6.49439 83.103 7.4073 84.5102 8.8598C85.9174 10.3123 86.7705 12.2124 86.921 14.2291C87.0715 16.2458 86.5099 18.2515 85.3339 19.8967C84.1579 21.542 82.4421 22.7227 80.4852 23.2332C78.5284 23.7436 76.4545 23.5516 74.6246 22.6904L59.9062 36.9495C60.4791 38.2748 60.7108 39.7225 60.5801 41.1604C60.4494 42.5982 59.9605 43.9804 59.1581 45.1807C58.3556 46.3809 57.2652 47.361 55.9865 48.0313C54.7078 48.7016 53.2814 49.0408 51.8378 49.018C50.3942 48.9951 48.9793 48.6108 47.7225 47.9003C46.4656 47.1898 45.4068 46.1757 44.6428 44.9506C43.8788 43.7255 43.434 42.3285 43.349 40.8872C43.2639 39.446 43.5414 38.0063 44.156 36.6999L34.1482 26.3698C33.0233 26.8585 31.8071 27.1012 30.5808 27.0818C29.3545 27.0623 28.1465 26.7812 27.0377 26.2571L16.7076 36.2649Z" fill="white"/>
<path d="M277.175 5.78627L281.143 6.23008C281.274 6.24473 281.405 6.20676 281.508 6.12452C281.611 6.04229 281.677 5.92253 281.692 5.79159C281.824 4.60837 281.481 3.42104 280.738 2.49079C279.995 1.56054 278.913 0.963581 277.729 0.831228C277.598 0.816581 277.467 0.85455 277.364 0.936784C277.261 1.01902 277.195 1.13878 277.18 1.26972L276.737 5.23732C276.722 5.36827 276.76 5.49966 276.842 5.60261C276.924 5.70556 277.044 5.77162 277.175 5.78627Z" fill="white"/>
<path d="M280.978 7.2175L276.13 6.67522C276.059 6.66726 275.99 6.64539 275.927 6.61084C275.865 6.57629 275.81 6.52974 275.765 6.47385C275.72 6.41797 275.687 6.35383 275.667 6.28512C275.647 6.2164 275.641 6.14444 275.649 6.07336L276.193 1.21349C276.202 1.13639 276.195 1.05823 276.171 0.984151C276.148 0.910073 276.11 0.841748 276.058 0.78366C276.006 0.725572 275.943 0.679034 275.872 0.647101C275.802 0.615167 275.725 0.59856 275.647 0.598368C274.517 0.592032 273.409 0.905664 272.45 1.503C271.49 2.10033 270.72 2.95696 270.227 3.97383C269.735 4.9907 269.54 6.12627 269.665 7.24922C269.791 8.37216 270.232 9.43661 270.937 10.3195C271.642 11.2023 272.583 11.8676 273.651 12.2382C274.718 12.6088 275.868 12.6697 276.969 12.4139C278.07 12.158 279.075 11.5959 279.87 10.7924C280.664 9.98891 281.215 8.97697 281.459 7.87356C281.474 7.79854 281.473 7.72119 281.457 7.64646C281.44 7.57172 281.408 7.50124 281.363 7.43951C281.318 7.37778 281.26 7.32616 281.194 7.28793C281.128 7.24971 281.054 7.22572 280.978 7.2175Z" fill="white"/>
<path d="M444.48 57.16C439.627 56.5733 436 55 433.6 52.44C431.2 49.88 430 46.2267 430 41.48C430 36.52 430.773 31.9333 432.32 27.72C433.867 23.5067 436.293 20.0933 439.6 17.48C442.96 14.8133 447.173 13.4533 452.24 13.4L453.76 5H457.84L456.32 13.64C460.747 14.0667 464.187 15.3733 466.64 17.56C469.147 19.6933 470.4 22.6267 470.4 26.36C470.4 27.6933 470.293 28.9733 470.08 30.2H459.04C459.147 29.24 459.2 28.5467 459.2 28.12C459.2 26.52 458.8 25.24 458 24.28C457.253 23.2667 456.16 22.6267 454.72 22.36L450.08 48.52C452.16 48.3067 453.84 47.5333 455.12 46.2C456.4 44.8133 457.253 42.9467 457.68 40.6H468.24C467.333 46.1467 465.227 50.3333 461.92 53.16C458.667 55.9867 454.213 57.4 448.56 57.4L446.88 66.76H442.8L444.48 57.16ZM450.64 22.44C446.16 23.3467 443.253 27.4533 441.92 34.76C441.44 37.32 441.2 39.2933 441.2 40.68C441.2 44.9467 442.827 47.5067 446.08 48.36L450.64 22.44Z" fill="white"/>
</svg>
